<?xml version="1.0" encoding="UTF-8"?>
<svg id="Layer_2" data-name="Layer 2" xmlns="http://www.w3.org/2000/svg" viewBox="0 0 386.21 142.64">
  <defs>
    <style>
      .cls-1 {
        fill: #cc5734;
      }

      .cls-1, .cls-2, .cls-3, .cls-4, .cls-5, .cls-6, .cls-7, .cls-8 {
        stroke-width: 0px;
      }

      .cls-2 {
        fill: #cb8033;
      }

      .cls-3 {
        fill: #cc5733;
      }

      .cls-4 {
        fill: #cd5a35;
      }

      .cls-5 {
        fill: #cb7f33;
      }

      .cls-6 {
        fill: #cd5832;
      }

      .cls-7 {
        fill: #fcfcfc;
      }

      .cls-8 {
        fill: #fdb912;
      }
    </style>
  </defs>
  <g id="Layer_1-2" data-name="Layer 1">
    <path class="cls-8" d="m234.13,124.28c3.31,2.68,6.62,5.36,9.92,8.04-.04.06-.09.12-.13.18-.78-.22-1.55-.44-2.33-.66-1.85-.95-3.83-1.55-5.74-2.36-14.11-6.01-28.2-12.06-42.3-18.08-.22-.09-.43-.22-.66-.29-1.03-.32-1.19-.99-.95-1.96.71-2.83,1.34-5.67,2.07-8.49.19-.73.37-1.47.55-2.21.43-1.66.6-1.81,2.22-1.44,1.58.36,3.17.37,4.77.33,2.27-.06,3.19-1.33,2.54-3.49-.85-2.82-2.67-5.07-4.5-7.29-.96-1.17-1.4-2.31-1.06-3.83.86-3.9,1.8-7.77,2.82-11.63.84-.79,1.06.12,1.24.56.75,1.78,1.97,3.17,3.34,4.48,1.46,1.39,1.96,1.47,3.65.45.85-.51,1.73-.72,2.74-.65,2.24.16,3.26-1.02,2.89-3.24-.13-.79-.31-1.56-.46-2.35-.25-1.29-.76-2.33-2.07-2.86-.57-.23-.9-.76-1.23-1.27-1.27-1.93-3.54-2.74-5.75-2.08-.65.19-1.24.56-1.91.71-.35.08-.56.34-.61.67-.17,1.01-.74,1.73-1.48,2.39-.42.37-.5.86-.35,1.42.39,1.41.2,1.63-1.3,1.58-.36-.01-.72-.02-1.04-.21-.78-.71-1.2-1.69-1.88-2.47-1.56-1.79-3.53-1.59-4.69.54-.3.55-.41,1.28-1.19,1.37-1.07.12-2.16.24-3.21-.09-.56-.18-.47-.76-.53-1.23-.19-1.62-.25-3.26-.6-4.87-.4-1.87-1.18-3.39-3.2-3.96-.67-.19-1.12-.76-1.64-1.18-.96-.77-1.93-1.13-3.03-.24-.49.39-1.02.31-1.58.09-.93-.36-1.57-.09-1.63.89-.15,2.7-1.16,5.44.31,8.1.44.8.21,1.07-.86,1.11-2.2.08-4.38-.18-6.56-.4-.99-.1-1.97-.28-2.97-.22-1.51-.42-3.24-.11-4.53-1.3-1.32-1.33-2.91-2.35-4.28-3.62-.49-.46-1.02-.89-1.55-1.33-.24-.2-.54-.46-.39-.8.15-.35.55-.27.86-.22,1.18.22,2.34.54,3.43,1.06.87.41,1.7.76,2.53-.05.93-.91,1.85-1.88,1.57-3.31-.27-1.36-.58-2.68-.75-4.07-.14-1.17-.79-2.35-.98-3.62-.11-.7-.78-.85-1.44-.7-.82.18-1.62.47-2.35.88-.94.52-1.76.36-2.51-.37-.29-.28-.57-.56-.88-.82-1.47-1.18-3.3-.92-4.38.63-1.12,1.61-.48,3.38,1.39,3.99.73.24,1.76-.12,2.15.75.32.71-.29,1.45-.38,2.2-.02.16,0-.04-.02.12-.37,1.89-.59,1.98-2.02.71-1.32-1.17-2.73-2.22-4.12-3.29-1.02-.79-1.09-1.15-.2-2.01,2.47-2.36,2.73-4.41.77-7.99-1.04-1.9-1.44-1.92-2.68-.19-.66.92-1.49,1.67-2.42,2.3-.83.56-1.08,1.23-.58,2.14.12.21.22.43.28.66.07.26.22.56-.06.77-.23.17-.47,0-.66-.12-.71-.46-1.51-.48-2.31-.47-1.96,0-3.92-.02-5.88.01-.85.01-1.51-.22-2.12-.87-1.26-1.35-3.62-1.55-4.84-.19-1.28,1.42-2.85,1.48-4.46,1.52-3.2.07-6.39.02-9.59.02-.4,0-.8,0-1.2.02-1.81.12-1.89.09-1.83-1.78.05-1.7-.34-3.24-1.21-4.68-.54-.89-.87-.97-1.73-.38-1.16.79-2.2,1.71-3.19,2.71-.83.84-1.04,1.71-.63,2.83.45,1.23.25,1.45-1.06,1.53-5.03.3-10.06.22-15.09.26-1.1,0-1.76-.36-2.26-1.36-.96-1.91-1.46-2.11-3.5-1.71-.37.07-.73.08-1.05-.1-1.5-.85-2.82-.47-3.87.73-.79.91-1.61.98-2.67.68-1.42-.41-2.85-.78-4.3-1.07-.9-.18-1.22-.62-1.04-1.51.32-1.6-.09-3.01-1.2-4.2-.87-.94-2.05-1.29-3.03-.91-1.03.4-1.54,1.33-1.49,2.73.05,1.67-.1,1.8-1.76,1.33-9.54-2.68-19.09-5.33-28.64-7.98-1.48-.41-2.73-1.08-3.83-2.11-3.06-2.86-6.18-5.66-9.28-8.49-3.36-3.06-6.69-6.17-10.1-9.19-1.16-1.03-2.14-2.26-3.41-3.17-2.29-1.96-3.87-4.4-4.98-7.17v-3.12c.37-.24.35-.69.54-1.03C1.64,1.33,3.19.18,5.65.02c3.42-.22,6.15,1.11,8.63,3.18,3.41,2.84,6.43,6.1,9.62,9.17,3.91,3.77,7.78,7.59,11.65,11.4.41.4.85.69,1.39.89,13.87,5.13,27.77,10.21,41.6,15.45,2.93,1.11,5.83.97,8.79.92,1.74-.16,3.48-.02,5.21-.08.43-.01.87.11,1.28-.11,2.16-.02,4.31-.05,6.47-.07,2.09-.18,4.19.12,6.28-.16l6.43-.08c1.77-.13,3.55-.02,5.32-.06.39,0,.79.1,1.16-.11,2.08-.02,4.16-.04,6.23-.06,1.74-.15,3.47-.02,5.21-.07.43-.01.87.11,1.28-.11.4,0,.81-.04,1.19.04,2.48.5,4.13-.94,5.82-2.38,1.96-1.67,4-3.23,5.99-4.86,1.94-1.59,3.85-3.21,5.8-4.79,2.46-2,4.93-3.98,7.39-5.99,1.97-1.61,3.9-3.26,5.88-4.86,1.12-.91,2.16-1.92,3.43-2.64.55-.18,1.15.1,1.69-.17.55-.02,1.11-.04,1.66-.05.63-.21,1.3.1,1.92-.19.56-.02,1.12-.04,1.68-.06.63-.2,1.3.1,1.92-.18l1.68-.06c.56-.17,1.17.08,1.73-.16l1.87-.08c.56-.18,1.16.09,1.71-.17.63-.03,1.26-.05,1.89-.08.56-.16,1.15.09,1.7-.16.55-.02,1.1-.04,1.65-.06.63-.21,1.31.1,1.94-.19.55-.02,1.11-.04,1.66-.05.63-.21,1.3.1,1.92-.19.56-.02,1.12-.04,1.68-.06.56-.19,1.17.08,1.73-.17.62-.03,1.25-.05,1.87-.08.56-.17,1.17.08,1.73-.16l1.88-.08c.56-.16,1.15.09,1.7-.16.63-.03,1.26-.05,1.89-.08.55-.17,1.15.1,1.69-.17l1.66-.05c.63-.21,1.31.1,1.94-.19.55-.02,1.11-.04,1.66-.06.63-.2,1.3.1,1.92-.18l1.68-.06c.56-.17,1.17.08,1.73-.16l1.87-.08c.56-.18,1.16.09,1.71-.17.63-.03,1.26-.05,1.89-.08.56-.16,1.15.09,1.7-.16.55-.02,1.1-.04,1.65-.06.63-.21,1.31.1,1.94-.19.55-.02,1.11-.04,1.66-.05.63-.21,1.3.1,1.92-.19,4.84,1.28,9.69,2.54,14.53,3.84,8.04,2.15,16.08,4.31,24.12,6.46,2.89.78,5.77,1.63,8.68,2.32,1.52.36,2.96-.42,4.42-.73,4.99-1.08,9.96-2.26,14.94-3.42.51-.12.93,0,1.36.24,1.79,1.02,3.63,1.96,5.34,3.1,1.45.97,2.89,1.43,4.58.85.38-.19.83.07,1.2-.19,3.17-.17,6.29-.72,9.43-1.08,1.66-.19,3.3-.43,4.96-.65.38-.19.83.07,1.2-.19,3.11-.34,6.22-.67,9.33-1.04,2.95-.35,5.9-.75,8.86-1.12,2.59-.33,5.23-.44,7.77-1.03,1.74-.4,3.33-1.45,4.99-2.22,1.94-.89,3.87-1.79,5.81-2.68.18.57,0,1.08-.17,1.62-.5,1.54-1.24,3.01-1.58,4.63.8.17,1.45-.53,2.17-.11,4.7,3.8,9.4,7.6,14.1,11.4.12.1.19.24.29.37-.24.71-.92.98-1.45,1.35-.75.52-.76.98-.21,1.66.65.81,1.32,1.6,1.81,2.52.93,2.23,2.33,4.21,3.44,6.34.57,1.09,1.16,2.16,1.73,3.24-.5,1.32-1.13,2.62-1.02,4.09-1.02.87-2.05,1.73-3.07,2.6-1.13.84-2.07,1.87-3.07,2.85-.63.62-1.2.71-1.91.3-3.12-1.78-6.3-3.46-9.38-5.32-.71-.43-1.12-1.12-1.55-1.8-.78-1.22-1.2-1.37-2.46-.77-.81.39-1.55.58-2.37.04-.58-.39-1.14-.18-1.63.27-.32.3-.59.65-.85,1-.7.93-1.6,1.39-2.79,1.35-3.56-.14-7.11.15-10.65.31-2.87.13-5.75-.06-8.61.33-1.11.15-2.05.6-2.99,1.15-1.14.66-1.4.6-2.19-.45-.43-.57-.82-1.18-1.2-1.79-.68-1.09-1.25-1.29-2.27-.82-1.04.48-1.49,1.39-1.17,2.45.26.86.83,1.54,1.35,2.25.8,1.1.78,1.39-.32,2.09-1.05.66-2.09,1.33-3.12,2.02-.72.49-1.42.72-2.19.09-.31-.26-.69-.29-.97.04-.5.58-1.1.74-1.83.59-.49-.1-.84.14-1.09.56-.25.41-.6.79-.68,1.26-.25,1.46-1.25,2.22-2.41,2.94-6,3.74-11.91,7.63-17.98,11.27-2.46,1.48-5.32,2.18-8,3.22-4.62,1.8-9.26,3.53-13.88,5.33-1.82.71-2.02.63-2.8-1.13-.13-.29-.26-.58-.39-.88-1.09-2.53-3.79-4.06-6.52-3.71-.28.04-.55.09-.8.24-1.22.74-2.05,4.05-1.29,5.26.55.88,1.25,1.64,2.07,2.31.94.77.86,1.24-.31,1.63-2.35.79-4.5,1.86-6.18,3.74-.35.39-.89.78-1.22-.01-1.06-2.48-3.32-2.78-5.55-3.09-2.1-.29-4.2-.42-6.33-.1-1.06.16-1.36-.31-.86-1.24.78-1.45,1.76-2.76,2.67-4.12.29-.42.7-.65,1.21-.69.94-.07,1.79-.39,2.58-.88.67-.41,1.41-.51,2.17-.62,1.74-.24,2.39-.93,2.4-2.68,0-1.03.4-1.71,1.24-2.28,3.11-2.11,6.19-4.26,9.27-6.4,1.11-.77,1.12-.79-.01-1.46-11.74-6.85-23.5-13.65-35.25-20.47-4.56-2.65-9.11-5.32-13.7-7.93-.44-.25-.85-.55-1.25-.79,2.9,3.1,5.67,6.34,8.54,9.5.88.98,1.79,1.93,2.62,2.96.46.57.68,1.15.56,1.88-.51,3.15-.83,6.33-1.34,9.49-.06.38,0,.86-.42,1.06-.47.22-.71-.24-1-.48-2.7-2.23-5.91-1.19-7,2.17-.44,1.35-.68,2.55.1,3.86.38.64.38,1.46.61,2.19.44,1.43,1.54,2.01,2.99,1.56.73-.23,1.38-.64,2.05-.98.86-.44,1.09-.3,1.03.62-.04.6-.01,1.2-.07,1.8-.81,1.8-1.72,3.53-3.14,4.94-1.36-.14-2.68.28-4.03.23-.58-.02-.92.41-1.22.84-.48.7-1.07,1.27-1.83,1.67-.25.13-.48.29-.67.49-.84.9-1.56,1.89-1.23,3.18.33,1.28,1.34,1.91,2.57,2.21.27.07.55.09.8.24.38.52-.03.9-.26,1.28-3.19,5.2-6.34,10.42-9.54,15.61-.87,1.42-.91,1.42.4,2.38,4.99,3.65,10.02,7.24,15.01,10.88.41.3.8.67,1.36.68,1.24-1.36,2.18-2.94,3.22-4.45.38-.56.75-1.13,1.14-1.69.39-.55.83-.81,1.52-.44,1.5.8,3.12.51,4.71.45.73-.03,1.22-.59,1.65-1.1.57-.66,1.57-.94,1.79-1.87.22-.94-.7-1.46-.99-2.23-.11-.3-.27-.59-.27-.91,0-1.03-.36-1.95-.88-2.82-.4-.68-.35-1.34.08-2.03,1.08-1.73,2.18-3.44,3.35-5.11.68-.98,1.16-.93,1.73.11.08.14.14.29.2.43,1.42,3.19,3.71,4.47,7.19,4.02.28-.04.55-.12.83-.1.76.04,1.26.51,1.61,1.1.32.56-.14.97-.45,1.37-4.98,6.29-9.98,12.57-14.92,18.89q-1.01,1.29-.17,2.61Z"/>
    <path class="cls-5" d="m224.36,73.48c-.08-.83-.07-1.66.1-2.57-1.02.4-1.82,1.07-2.81,1.37-1.67.5-2.93-.18-3.36-1.85-.31-1.19-.52-2.42-1.18-3.5-.12-.19-.24-.48-.18-.67.73-2.32,1.41-4.68,4.11-5.58,1.14-.38,2.13-.11,3.06.5.59.39,1.1.89,1.76,1.43.29-1.97.56-3.88.84-5.78.22-1.53.4-3.07.66-4.6.12-.73,0-1.26-.53-1.84-3.94-4.38-7.85-8.8-11.66-13.35,2.01,1.16,4.03,2.31,6.03,3.47,6.87,3.98,13.73,7.96,20.6,11.94,6.55,3.81,13.1,7.63,19.65,11.44,1.79,1.04,3.58,2.11,5.4,3.08.84.45,1.01.71.11,1.32-3.37,2.28-6.69,4.63-10.06,6.9-.67.45-.97.91-.95,1.74.06,2.2-.74,3.06-2.92,3.19-.79.05-1.45.33-2.12.71-.55.31-1.19.71-1.76.67-1.2-.08-1.68.64-2.19,1.47-.69,1.12-1.39,2.23-2.15,3.31-.46.65-.25.89.43.77,2.15-.38,4.29-.2,6.43.02,1.44.15,2.83.47,4.12,1.12,1.07.54,1.57,1.51,2.02,2.74,1.9-2.48,4.45-3.73,7.24-4.57.8-.24.34-.58.05-.79-.89-.64-1.61-1.42-2.25-2.3-.97-1.35-.99-2.17-.12-3.6.1-.17.21-.34.29-.52.96-2.33,2.95-2.93,5.2-1.55.17.1.35.26.53.27,1.91.07,2.39,1.6,3.05,2.94.21.43.48.85.58,1.31.25,1.11.81,1.25,1.81.86,7.13-2.78,14.3-5.47,21.41-8.31,2.48-.99,4.58-2.73,6.84-4.14,4.37-2.72,8.69-5.51,13.04-8.25.55-.34.89-.72.98-1.39.12-.89.73-1.58,1.14-2.35.28-.54.78-.59,1.24-.4.67.28,1.12.18,1.51-.46.39-.64.93-.77,1.43-.11.49.64.98.52,1.55.14,1.19-.8,2.38-1.61,3.61-2.35.66-.4.83-.67.23-1.33-.79-.88-1.56-1.83-1.74-3.08-.15-1,.59-2.03,1.71-2.42,1.05-.37,1.88-.21,2.34.92.05.11.1.22.17.32.55.78.95,1.84,1.7,2.27.92.53,1.62-.68,2.47-1.03,1.1-.46,2.24-.54,3.38-.58,3.99-.13,7.98-.09,11.97-.33,2.07-.12,4.14-.16,6.22-.18,1.11-.01,1.71-.7,2.31-1.47.52-.68,1.18-1.84,2.01-1.33,1.45.88,2.5.3,3.74-.24.55-.24,1.22.12,1.43.63.86,2.07,2.73,2.92,4.5,3.91,2.26,1.27,4.54,2.51,6.78,3.81.61.35.97.27,1.54-.19,1.09-.9,1.92-2.13,3.27-2.72-2.15,2.23-4.31,4.46-6.04,7.05-.27.41-.71.52-1.04.32-1.99-1.23-4.32-1.27-6.46-1.93-.86-.26-1.66-.63-2.41-1.11-.95-.22-1.9-.18-2.85-.02-1.27.02-2.54.05-3.81.07-1.27.2-2.57-.13-3.84.18-1.2.02-2.4.03-3.59.05-1.28.23-2.59-.11-3.87.18-1.27.02-2.54.04-3.81.06-1.28.22-2.58-.12-3.85.18-.81-.1-1.52.05-2.25.5-5.34,3.31-10.72,6.55-16.07,9.85-6.39,3.94-12.74,7.96-19.16,11.85-2.43,1.48-4.8,3.09-7.32,4.39-2.12,1.1-4.46,1.78-6.7,2.65-4.74,1.83-9.49,3.67-14.23,5.51-3.31,1.28-6.61,2.58-9.94,3.83-.51.19-.91.46-1.29.82-3.75,3.65-7.49,7.3-11.24,10.94-5.7,5.53-11.4,11.05-17.1,16.58-.19-.14-.37-.32-.58-.41-.95-.42-.67-.96-.19-1.56,5.27-6.63,10.54-13.27,15.81-19.92.2-.26.63-.53.28-.9-.45-.47-.82-1.13-1.67-.91-1.14.29-2.28.27-3.43.03-2.23-.47-3.65-1.84-4.47-3.9-.09-.22-.2-.44-.29-.66-.38-.94-.77-.81-1.25-.05-1.08,1.72-2.17,3.44-3.32,5.11-.43.63-.46,1.16-.07,1.75.58.88.95,1.81.9,2.91-.03.66.4,1.19.8,1.7.94,1.21.86,1.8-.35,2.66-.16.12-.35.21-.48.36-2.16,2.62-4.79,2.15-7.46,1.1-.69-.27-.74.21-.96.52-1.34,1.93-2.67,3.87-3.99,5.82-.16.23-.27.49-.56.59-.35-.45-.14-.93-.02-1.38,2.73-9.92,5.45-19.84,8.18-29.76.36-1.31,1.11-2.25,2.11-3.09,2.16-1.82,4.27-3.7,6.49-5.67-1.59-.77-3.21-1.11-4.78-1.59-3.13-.96-6.26-1.92-9.39-2.86-.42-.13-.86-.23-1.08-.68Z"/>
    <path class="cls-5" d="m201.53,71.05c-.57,3.29-1.52,6.5-2.26,9.75-.23,1.01-.44,2.02-.59,3.04-.13.91.42,1.57.96,2.23,1.86,2.29,3.73,4.58,4.7,7.43.9,2.63-.18,4.14-2.93,4.16-1.67.02-3.34.05-4.98-.44-.75-.23-1.24-.15-1.46.88-.84,3.76-1.8,7.49-2.77,11.23-.21.81-.01,1.14.77,1.47,10.6,4.5,21.18,9.04,31.76,13.57,5.42,2.32,10.85,4.63,16.27,6.94.25.11.53.2.6.53-3.71-1.18-7.44-2.32-11.12-3.58-.76-.26-1.18-.11-1.66.4-2.54,2.7-5.31,5.19-7.75,8-.4.46-.88.78-1.48.94-5.96,1.65-11.91,3.31-17.87,4.96-.33.09-.68.12-1.12,0,.99-.82,1.96-1.66,2.96-2.46,3.25-2.56,6.6-5,9.71-7.71,1.44-1.26,2.42-3.06,3.59-4.63.73-.98,1.42-1.99,2.21-3.1-1.21-.47-2.41-.95-3.62-1.39-6.39-2.31-12.79-4.6-19.18-6.93-2.74-1-5.43-2.14-8.2-3.07-.89-.3-1.02-.77-.92-1.47.26-1.89.59-3.77.87-5.66.11-.7.06-1.41.31-2.09.17-.47-.18-.67-.52-.92-4.59-3.5-9.15-7.04-13.75-10.53-3.85-2.92-7.72-5.81-11.61-8.69-.65-.48-.54-.92-.23-1.52,2.16-4.21,4.29-8.44,6.43-12.66.16-.31.28-.65.45-1.03-1.16-.21-2.26-.41-3.36-.61.97-.34,1.97-.17,2.95-.08,2.46.21,4.91.45,7.38.4.01-.12.06-.22.02-.27-1.39-1.82-1.12-3.91-.9-5.96.08-.71.12-1.42.16-2.14.1-1.8.84-2.27,2.46-1.57.36.16.67.12,1-.11,1.47-1.04,2.13-1.05,3.54.21.73.65,1.5,1.14,2.42,1.46,1.14.4,1.7,1.39,2.08,2.48.7,2.02.81,4.13.93,6.23.05.79.2,1.2,1.08,1.1.43-.05.88-.03,1.32,0,.94.08,1.52-.05,1.91-1.18.79-2.32,3.5-2.69,5.13-.85.75.84,1.35,1.78,1.88,2.76.6.25,1.23.05,1.85.12.25.03.59-.08.56.37Z"/>
    <path class="cls-2" d="m4.98,14.68c.79-.07,1.14.63,1.59,1.03,2.99,2.64,5.9,5.36,8.84,8.05,4.59,4.19,9.19,8.38,13.78,12.58.54.49,1.21.62,1.84.8,9.93,2.79,19.87,5.55,29.79,8.34.83.23,1.03.18.87-.77-.3-1.77.42-3.09,1.72-3.55,1.25-.44,2.75.2,3.72,1.54.93,1.27,1.24,2.65.84,4.18-.13.51-.11.79.52.93,1.79.38,3.57.83,5.34,1.3.59.16.92.05,1.32-.44,1.45-1.77,2.56-2.01,4.58-1.06.31.15.57.17.91.05,1.79-.6,2.81-.35,3.51,1.34.64,1.53,1.59,1.75,3.04,1.71,3.15-.1,6.32.05,9.47-.08,1.75-.07,3.5-.16,5.25-.18.32,0,.92.06.59-.52-1.56-2.71.63-3.89,2.13-5.34.51-.49,1.14-.87,1.71-1.3.93-.7,1.38-.58,2,.47.95,1.62,1.53,3.35,1.29,5.25-.15,1.23.27,1.32,1.43,1.27,3.63-.16,7.27-.06,10.91-.09.91,0,1.82-.15,2.73-.2.44-.03.57-.4.8-.65,1.93-2.1,4.41-2.14,6.29-.04.35.4.7.44,1.15.44,2.24,0,4.48,0,6.72-.03.92-.01,1.76.07,2.57.75-.24-.5-.47-1-.72-1.49-.37-.74-.32-1.36.44-1.85,1.35-.88,2.48-1.96,3.35-3.36.66-1.05,1.3-1,2.01.02.67.95,1.22,1.96,1.61,3.06.9,2.52.17,4.61-1.8,6.3-.73.63-.74.95.11,1.55,1.87,1.33,3.62,2.82,5.53,4.34.01-1.21.25-2.25.63-3.24.24-.63-.02-.78-.59-.79-.35,0-.71-.07-1.06-.15-1.54-.37-2.41-1.18-2.53-2.33-.14-1.39.63-2.73,1.96-3.41,1.17-.59,2.55-.4,3.55.51.21.19.41.38.59.6.74.88,1.51,1.16,2.59.48.66-.42,1.46-.65,2.22-.86,1.2-.34,1.97.21,2.01,1.47.03.93-.05,1.84.8,2.5.27.21.26.61.18.9-.33,1.11.07,2.1.43,3.11.63,1.77-.63,4.24-2.42,4.86-.46.16-.84.03-1.25-.16-1.5-.71-3.07-1.22-5.06-1.53,1.97,1.66,3.7,3.12,5.42,4.57.42.35.97.6.98,1.26-6.71-4.2-13.42-8.4-20.13-12.6-.4-.25-.8-.45-1.31-.45-9.42.03-18.84.04-28.26.06-.08,0-.16.03-.23.05-.43.11-.87.06-1.31.06-8.97,0-17.94,0-26.91,0-.43,0-.88-.11-1.29.11-4.14.39-7.92-1.1-11.77-2.23-3.64-1.07-7.32-2.02-10.97-3.06-3.63-1.04-7.24-2.17-10.88-3.2-4.79-1.36-9.6-2.66-14.39-4.01-1.8-.51-3.57-1.13-5.37-1.65-.44-.13-.66-.44-.91-.72-1.82-2.09-3.79-4.04-5.63-6.11-2.39-2.69-4.91-5.27-7.3-7.95-1.34-1.5-2.77-2.94-4.13-4.43-1.82-1.99-3.8-3.82-5.45-5.96Z"/>
    <path class="cls-3" d="m365.37,18.75c-.84.2-1.68.4-2.52.6-.11-.95.4-1.74.68-2.58.46-1.39,1.08-2.73,1.42-4.17.07.14.15.28.22.42.19.47-.08.99.18,1.45,0,1.42.01,2.84.02,4.27Z"/>
    <path class="cls-4" d="m379.91,36.05c-1.13-.83-1.74-2.12-2.62-3.16-.35-.41.11-.65.37-.85.69-.53,1.41-1.02,2.11-1.53.41,1.84.13,3.69.14,5.53Z"/>
    <path class="cls-1" d="m384.06,49.73c-.64-1.61.03-2.89,1.02-4.09.03.02.09.03.1.06.27.85,1.31,1.61.95,2.41-.32.71-1.35,1.09-2.07,1.62Z"/>
    <path class="cls-7" d="m233.44,10.15c-.62.24-1.28.2-1.92.19"/>
    <path class="cls-2" d="m201.53,71.05c-.71-.64-1.7.12-2.41-.49.16,0,.32,0,.48,0,.56-.01,1.28.18,1.63-.1.54-.44-.24-.93-.34-1.43-.14-.7.28-1.11.69-1.55.32-.35.95-.5.99-.99.21-2.56,2.35-2.57,4.01-2.83,2.22-.34,4.19.37,5.29,2.59.3.6.84.95,1.45,1.19.82.31,1.22.92,1.47,1.74.39,1.3.71,2.62.85,3.95.25,2.33-1.15,3.17-3.22,3.07-1.11-.05-2.01.15-2.89.75-1.42.97-2.22.88-3.48-.32-1.53-1.46-3-2.97-3.76-5.02-.1-.28-.1-.92-.75-.59Z"/>
    <path class="cls-2" d="m297.38,51.49c.87-.55,1.6-1.3,2.57-1.72,1.15-.5,2.07-.26,2.55.91.73,1.76,1.11,3.63,1.39,5.5.14.91.12,1.82.66,2.62.43.64.28,1.2-.24,1.71-.51.5-1.04,1-1.54,1.51-.31.32-.67.41-1.09.38-2.62-.18-5.07-.9-7.43-2.06-1-.49-1.1-1.36-.8-2.12.74-1.9.78-3.24-1.57-4.03-.96-.32-1.7-1.38-1.65-2.7.06-1.47.79-2.34,2.29-2.51,2.39-.26,3.32.22,4.84,2.5Z"/>
    <path class="cls-2" d="m283.63,73.9c-.48-.07-1.33.32-1.7-.19-.96-1.34-2.79-1.75-3.45-3.38-.66-1.63-.78-3.33-.65-5.04.13-1.79,1.63-2.64,2.73-3.74.24-.24.7-.16,1.03,0,2.82,1.34,5.44,2.86,6.3,6.21.23.91.23,1.71-.15,2.54-.23.5-.49.99-.62,1.55-.42,1.79-.75,2.02-2.65,2.04-.24,0-.48,0-.86,0Z"/>
    <path class="cls-2" d="m214.73,51.27c-.22-.94.07-1.7.98-2.26.46-.28.8-.78,1.2-1.17,1.34-1.31,1.75-1.35,3.24-.22.43.32.71.43,1.1-.01.82-.94,1.61-.58,2.38.09.56.49.84,1.14,1.14,1.8.24.54.49,1.09.8,1.59,1.32,2.17.75,4.03-1.56,5.06-3.87,1.72-6.26.44-8.7-2.44-.56-.66-.71-1.5-.57-2.44Z"/>
    <path class="cls-2" d="m264.58,51.28c.08-2.06,1.47-3.18,3.1-4.03,1.36-.71,2.95-.37,4.11.91,2.57,2.83,3.21,6.59-.29,9.39-1.34,1.07-1.87,1.01-2.92-.32-1.13-1.44-2.31-2.84-3.47-4.26-.4-.49-.57-1.04-.53-1.69Z"/>
    <path class="cls-2" d="m208.69,57.4c-.1,1.19-2.36,3.78-3.44,4.03-.36.08-.71.02-1.03-.19-1.82-1.21-3.94-1.86-5.71-3.17-1.07-.79-1.28-1.18-.39-2.16.78-.86,1.46-1.68,1.81-2.86.27-.9,1.18-1.47,2.12-1.8.54-.19,1.13,0,1.42.38,1.28,1.71,3.07,2.89,4.52,4.41.4.42.71.86.7,1.35Z"/>
    <path class="cls-2" d="m250.21,48.94c0,.45-.03.81,0,1.17.1.95-.05,1.69-1.09,2.11-.61.25-1.02.86-1.49,1.35-.99,1.04-1.74.88-2.3-.43-.32-.74-.75-1.41-1.26-2.02-1.61-1.91-1.61-3.95.1-5.77.76-.81,1.63-1.53,2.5-2.22.67-.53,1.25-.55,1.68.41.44.98.98,1.92,1.56,2.82.57.87.13,1.8.3,2.59Z"/>
    <path class="cls-2" d="m281.87,49.16c.67-1.39.33-3.51,2.54-4.22.76-.24,1.14-1.08,1.89-1.44.79-.38,1.29-.27,1.59.57.46,1.31.9,2.64,1.71,3.79.19.27.28.6.15.91-.69,1.57-.8,3.44-2.44,4.51-.39.26-.67.68-1.02,1.01-.99.92-1.72.71-1.96-.64-.23-1.28-.81-2.3-1.84-3.08-.4-.31-.6-.73-.62-1.42Z"/>
    <path class="cls-2" d="m273.53,74.12c-1.12-.29-2.54.09-3.03-1.54-.17-.55-.8-.85-1.29-1.2-1.41-1.01-1.49-4.21-.18-5.34.23-.2.52-.38.76-.23.88.53,1.69.34,2.58,0,.45-.18,1.01-.04,1.52.14,1.3.47,1.74,1.28,1.11,2.46-.52.98-.53,1.78-.05,2.79.72,1.52-.02,2.89-1.42,2.93Z"/>
    <path class="cls-2" d="m221.43,78.22c-1.74,3.11-3.61,6.14-5.55,9.13-2.47-.1-4.13-1.62-3.78-3.59.23-1.29.97-2.35,2.16-2.99.65-.35,1.23-.76,1.56-1.4.51-1.01,1.34-1.27,2.36-1.13,1.08.14,2.16-.67,3.25-.02Z"/>
    <path class="cls-2" d="m208.94,44.9c-.29,1.17-.73,2.43-1.8,3.38-.62.55-1.24.38-1.86.02-1.12-.65-1.86-1.74-2.9-2.49-.31-.22-.47-.68-.34-1.09.2-.62.19-1.26.2-1.89,0-.5.24-.83.71-1,.11-.04.24-.05.34-.11.9-.5,2.28-.38,3.15.24.52.37,1.06.71,1.6,1.05.62.4.91.98.9,1.89Z"/>
    <path class="cls-2" d="m350.04,45.63c-.09,1.28-.81,2.12-1.94,2.62-1.06.47-2.1.43-2.98-.44-1.4-1.38-1.9-3.08-1.81-5,.01-.34.11-.65.48-.74.52-.13.95-.4,1.33-.77.25-.24.65-.36.88-.15,1.23,1.1,3.01,1.54,3.75,3.21.18.41.32.81.3,1.28Z"/>
    <path class="cls-2" d="m171.66,55.69c-.5,0-.92-.22-1.28-.55-1.37-1.23-2.01-4.28-1.24-5.95.62-1.35,1.47-1.76,2.76-1.04,1.26.69,2.6,1.4,2.9,3.07.31,1.7-1.59,4.46-3.14,4.47Z"/>
    <path class="cls-2" d="m315.46,51.67c-.03,1.2-2.07,3.54-3.22,3.68-.15.02-.31-.02-.46-.07-2.13-.7-3.14-4.44-1.66-6.14.67-.77,1.42-1.04,2.43-.63,1.58.64,2.94,2.05,2.91,3.15Z"/>
    <path class="cls-2" d="m184.49,50.95c-.07-1.68.98-1.85,1.84-2.22.85-.37,1.14.18,1.58.78.58.8,1.35,1.46,2.05,2.17.42.43.78.89,1,1.47.36.94.21,1.5-.89,1.72-.61.12-1.2.43-1.75.74-.57.31-1.1.35-1.52-.13-1.21-1.42-1.89-3.1-2.31-4.52Z"/>
    <path class="cls-6" d="m376.16,45.07c-.75-2.77-.7-5.47,1.08-7.91.12-.16.21-.36.36-.47.31-.23.67-.57,1.04-.14.35.41.03.76-.27,1.02-.95.8-1.53,1.84-1.83,3.02-.23.92-.4,1.86-.38,2.83.01.55,0,1.11,0,1.66Z"/>
  </g>
</svg>